<?xml version="1.0" encoding="utf-8"?>
<!-- Generator: Adobe Illustrator 24.0.1, SVG Export Plug-In . SVG Version: 6.00 Build 0)  -->
<svg version="1.1" id="SFE_x5F_Logo_RGB" xmlns="http://www.w3.org/2000/svg" xmlns:xlink="http://www.w3.org/1999/xlink" x="0px"
	 y="0px" viewBox="0 0 135.9 131.4" style="enable-background:new 0 0 135.9 131.4;" xml:space="preserve">
<style type="text/css">
	.st0{fill:#FFD802;}
	.st1{fill:#3F2777;}
</style>
<g>
	<path class="st0" d="M108.1,27.1c-3.5-5-7.7-9.5-12.6-13.2c-7.3-5.6-16-9.6-25.6-11.3c-16.1-2.9-31.9,1-44.4,9.6
		C13.1,20.9,3.9,34.3,1,50.4c-2.9,16.1,1,31.9,9.6,44.4c6.9,9.9,16.8,17.7,28.6,22c-4.5-3.6-8.5-7.9-11.7-12.6
		c-8.7-12.5-12.6-28.4-9.7-44.5c1.1-6.1,3.1-11.9,5.9-17.1c0.3-0.7,0.7-1.3,1.1-2c3-5,7-9.3,11.7-12.6c8.5-5.9,19.1-8.5,30-6.5
		c7.7,1.4,14.5,4.9,19.9,9.8c2.2,2,4.2,4.3,6,6.8c5.9,8.5,8.5,19.1,6.5,30C96.8,79,90.6,88,82.2,93.9c-8.5,5.9-19.1,8.5-30,6.5
		c-1.1-0.2-2.2-0.4-3.3-0.7c5.5,5.1,12.4,8.7,20.3,10.2c11,2,21.6-0.7,30.1-6.5c2.7-1.9,5.1-4,7.3-6.5c3.5-4.6,6.4-9.8,8.5-15.5
		c1.2-3.2,2.1-6.4,2.7-9.8C120.6,55.4,116.7,39.6,108.1,27.1z"/>
	<path class="st1" d="M125.2,36.3c-7.1-10.2-17.4-18.3-29.8-22.4c4.9,3.8,9.1,8.2,12.6,13.2c2.2,3.1,4,6.4,5.6,9.9
		c0.4,0.9,0.7,1.8,1.1,2.6c0.8,2.2,1.5,4.4,2.1,6.7c0.3,1.1,0.5,2.2,0.7,3.3c0.1,0.6,0.2,1.2,0.3,1.8c1,6.5,1,13.2-0.2,20
		c-0.2,0.9-0.3,1.7-0.5,2.5c-0.4,1.6-0.8,3.2-1.3,4.7c-0.3,0.9-0.6,1.8-0.9,2.6c0,0,0,0,0,0c-0.1,0.3-0.2,0.5-0.3,0.8
		c-2,5.2-4.6,10-7.8,14.3c-0.1,0.2-0.2,0.3-0.3,0.4c0,0,0,0,0,0c-0.5,0.6-1.1,1.2-1.7,1.8c-0.6,0.6-1.2,1.1-1.8,1.7
		c-1.2,1.1-2.5,2.1-3.8,3c-2,1.4-4.2,2.6-6.4,3.6c-0.9,0.4-1.9,0.8-2.9,1.2c-0.7,0.2-1.3,0.5-2,0.7c-0.6,0.2-1.3,0.4-1.9,0.5
		c-0.9,0.2-1.8,0.4-2.8,0.6c-1.9,0.3-3.9,0.5-5.9,0.6c-2.7,0.1-5.4-0.1-8.1-0.6c-2-0.4-3.9-0.9-5.7-1.5c-1.8-0.6-3.6-1.4-5.3-2.2
		c-1.7-0.9-3.3-1.8-4.9-2.9c-1.5-1.1-3-2.3-4.4-3.5c0,0,0,0,0,0c0,0,0,0,0,0c-2.1-2-4-4.1-5.6-6.5c-5.9-8.5-8.5-19.1-6.5-30.1
		c2-11,8.2-20,16.6-25.9c8.5-5.9,19.1-8.5,30.1-6.5c0.9,0.2,1.9,0.4,2.8,0.6c-4.7-4.3-10.5-7.5-17-9.2c-0.9-0.2-1.9-0.4-2.8-0.6
		c-0.7-0.1-1.4-0.2-2-0.3c-1.3-0.2-2.6-0.3-3.8-0.3c-0.2,0-0.4,0-0.6,0c-8.6-0.2-16.7,2.5-23.5,7.2c-4.7,3.3-8.7,7.5-11.7,12.6
		c-0.4,0.7-0.8,1.3-1.1,2c-2.8,5.2-4.8,11-5.9,17.1c-0.2,1.1-0.4,2.2-0.5,3.3c-0.2,1.8-0.4,3.6-0.4,5.4c0,0.3,0,0.6,0,0.8
		c-0.2,9.8,2,19.3,6.2,27.7c0.4,0.9,0.9,1.7,1.3,2.5c0.9,1.7,1.9,3.3,3,4.8c3.3,4.7,7.2,9,11.7,12.6c7.5,6,16.5,10.2,26.6,12.1
		c0,0,0,0,0,0c16.1,2.9,32-1,44.5-9.7c12.5-8.7,21.7-22.2,24.6-38.3C137.8,64.7,133.9,48.8,125.2,36.3z"/>
</g>
</svg>
