<?xml version="1.0" encoding="utf-8"?>
<!-- Generator: Adobe Illustrator 23.0.2, SVG Export Plug-In . SVG Version: 6.00 Build 0)  -->
<svg version="1.1" id="Layer_1" xmlns="http://www.w3.org/2000/svg" xmlns:xlink="http://www.w3.org/1999/xlink" x="0px" y="0px"
	 viewBox="0 0 512 512" style="enable-background:new 0 0 512 512;" xml:space="preserve">
<style type="text/css">
	.st0{fill:#FFFFFF;}
	.st1{fill:#FFD800;}
</style>
<g>
	<path class="st0" d="M256.2,506c-137.3,0-249-111.7-249-249S118.9,8,256.2,8s249,111.7,249,249S393.6,506,256.2,506z M256.2,40.9
		C137.1,40.9,40.2,137.9,40.2,257s96.9,216.1,216.1,216.1S472.3,376.2,472.3,257S375.4,40.9,256.2,40.9z"/>
	<path class="st1" d="M213.8,375.2c-0.6,0-1.8-0.2-2.8-1.2l-94.3-95c-1.6-1.6-1.5-4.1,0-5.7l23.6-23.4c1-1,2.2-1.2,2.8-1.2
		c0.6,0,1.8,0.2,2.8,1.2l68,68.6L366.7,167c1-1,2.2-1.2,2.8-1.2c0.6,0,1.8,0.2,2.8,1.2l23.4,23.6c1,1,1.2,2.2,1.2,2.8
		c0,0.6-0.2,1.8-1.2,2.8L216.6,374C215.6,375,214.4,375.2,213.8,375.2z"/>
</g>
</svg>
