<?xml version="1.0" encoding="utf-8"?>
<!-- Generator: Adobe Illustrator 23.0.2, SVG Export Plug-In . SVG Version: 6.00 Build 0)  -->
<svg version="1.1" id="Layer_1" xmlns="http://www.w3.org/2000/svg" xmlns:xlink="http://www.w3.org/1999/xlink" x="0px" y="0px"
	 viewBox="0 0 512 512" style="enable-background:new 0 0 512 512;" xml:space="preserve">
<style type="text/css">
	.st0{fill:#FFFFFF;}
	.st1{fill:#FFD800;}
</style>
<g>
	<path class="st0" d="M256.2,506c-137.3,0-249-111.7-249-249S118.9,8,256.2,8s249,111.7,249,249S393.6,506,256.2,506z M256.2,40.9
		c-119.1,0-216,97-216,216.1s96.9,216.1,216.1,216.1s216-96.9,216-216.1S375.4,40.9,256.2,40.9z"/>
</g>
<g>
	<path class="st1" d="M223.8,254.3l140.4-96.5c1.8-1.3,4.4-0.8,5.7,1.1l18.8,27.4c1.3,1.8,0.8,4.4-1,5.7L263,277.6L223.8,254.3z"/>
</g>
<circle class="st1" cx="256.1" cy="257" r="37.5"/>
<path class="st0" d="M238.9,93.2c-1.9,0-3.5-1.6-3.5-3.5V55.2c0-1.9,1.6-3.5,3.5-3.5h34.5c1.9,0,3.5,1.6,3.5,3.5v34.5
	c0,1.9-1.6,3.5-3.5,3.5H238.9z"/>
<path class="st0" d="M128.2,153.4c-1.3,1.3-3.6,1.3-4.9,0L98.8,129c-1.3-1.3-1.3-3.6,0-4.9l24.4-24.4c1.3-1.3,3.6-1.3,4.9,0
	l24.4,24.4c1.3,1.3,1.3,3.6,0,4.9L128.2,153.4z"/>
<path class="st0" d="M92.4,274.3c0,1.9-1.6,3.5-3.5,3.5H54.4c-1.9,0-3.5-1.6-3.5-3.5v-34.5c0-1.9,1.6-3.5,3.5-3.5h34.5
	c1.9,0,3.5,1.6,3.5,3.5V274.3z"/>
<path class="st0" d="M384.2,153.4c1.3,1.3,3.6,1.3,4.9,0l24.4-24.4c1.3-1.3,1.3-3.6,0-4.9l-24.4-24.4c-1.3-1.3-3.6-1.3-4.9,0
	L359.8,124c-1.3,1.3-1.3,3.6,0,4.9L384.2,153.4z"/>
<path class="st0" d="M420,274.3c0,1.9,1.6,3.5,3.5,3.5H458c1.9,0,3.5-1.6,3.5-3.5v-34.5c0-1.9-1.6-3.5-3.5-3.5h-34.5
	c-1.9,0-3.5,1.6-3.5,3.5V274.3z"/>
</svg>
