<?xml version="1.0" encoding="utf-8"?>
<!-- Generator: Adobe Illustrator 23.0.6, SVG Export Plug-In . SVG Version: 6.00 Build 0)  -->
<svg version="1.1" id="Layer_1" xmlns="http://www.w3.org/2000/svg" xmlns:xlink="http://www.w3.org/1999/xlink" x="0px" y="0px"
	 viewBox="0 0 512 512" style="enable-background:new 0 0 512 512;" xml:space="preserve">
<style type="text/css">
	.st0{fill:#FFD800;}
	.st1{fill:none;stroke:#FFFFFF;stroke-width:33;stroke-miterlimit:10;}
</style>
<g>
	<path class="st0" d="M213.7,342.8c-0.6,0-1.8-0.2-2.8-1.2l-94.3-95c-1.6-1.6-1.5-4.1,0-5.7l23.6-23.4c1-1,2.2-1.2,2.8-1.2
		s1.8,0.2,2.8,1.2l68,68.6l152.8-151.5c1-1,2.2-1.2,2.8-1.2c0.6,0,1.8,0.2,2.8,1.2l23.4,23.6c1,1,1.2,2.2,1.2,2.8s-0.2,1.8-1.2,2.8
		L216.5,341.6C215.5,342.6,214.3,342.8,213.7,342.8z"/>
</g>
<path class="st1" d="M256,30.5c-114.4,0-200.2,39.9-200.2,39.9s0,57.5,0,185.5C55.8,401.7,256,488.4,256,488.4
	S457.2,401.7,457.2,256c0-128.1,0-185.5,0-185.5S370.4,30.5,256,30.5L256,30.5z"/>
</svg>
